<?xml version="1.0" encoding="UTF-8"?><svg xmlns="http://www.w3.org/2000/svg" viewBox="0 0 516.8 710.47"><defs><style>.f{fill:#fff;}</style></defs><g id="a"/><g id="b"><g id="c"><g id="d"><g id="e"><path class="f" d="M439,118.83c-19.12,19.27-39.57,37.18-61.18,53.6-32.2,24.24-43.07,67.69-26.08,104.23l5.91,12.59c4.13,8.83,2.31,19.29-4.57,26.2l-7.08,7.13L194.2,170.78l7.13-7.12c6.9-6.89,17.37-8.72,26.2-4.58l12.58,5.89c36.52,17,79.96,6.17,104.22-26,16.43-21.61,34.34-42.06,53.6-61.19,69.07-69.07,84-54.14,89.63-48.52s20.55,20.5-48.56,89.57Zm-142.7,253.43L144.51,220.46l37.61-37.61,151.8,151.8-37.62,37.61Zm-47.85,52.71c-.68-4.93-2.19-9.72-4.45-14.15-14.19-27.71-56.38-40.74-97.19-53.34-53.93-16.65-89.42-29.81-86.61-57.51l65-65,156.62,156.61-33.37,33.39ZM504.45,12.34c-33-33-80.91,6-123.42,48.52-20.06,19.93-38.72,41.23-55.83,63.75-17.42,23.16-48.66,30.99-74.94,18.79l-12.58-5.92c-17.95-8.4-39.23-4.68-53.27,9.31l-13.15,13.18-52.1,52.1c-2.21,2.21-3.46,5.19-3.48,8.31l-66.18,66.13c-.19,.08-.38,.17-.56,.28l-4.24,4.24c-.09,.19-.21,.36-.29,.56L2.5,333.51c-3.33,3.33-3.33,8.74,0,12.07l41.55,41.55c1.59,1.59,3.75,2.49,6,2.5h11.61l.34,12.19c.07,2.17,.96,4.24,2.49,5.78l61.4,61.4c2.29,2.28,5.67,3.08,8.74,2.06l16.83-5.61-5.86,16.34c-1.11,3.11-.33,6.58,2,8.91l23.6,23.57c3.32,3.33,8.72,3.34,12.05,.02l.02-.02,36.24-36.24,18.42-18.42,6.93-6.93,21.72-21.71,29.86-29.86c3.12-.03,6.11-1.28,8.32-3.49l52.09-52.1,13.15-13.17c13.99-14.03,17.71-35.31,9.31-53.26l-5.92-12.6c-12.2-26.29-4.36-57.52,18.8-74.94,22.52-17.1,43.82-35.76,63.74-55.82,42.52-42.51,81.53-90.42,48.53-123.42v.03Z"/><path class="f" d="M215.85,671.22c0,21.68-17.57,39.25-39.25,39.25s-39.25-17.57-39.25-39.25c0-39.25,39.25-98.13,39.25-98.13,0,0,39.25,58.88,39.25,98.13Z"/></g></g></g></g></svg>