<?xml version="1.0" encoding="UTF-8"?><svg xmlns="http://www.w3.org/2000/svg" viewBox="0 0 2406.1 183.32"><defs><style>.d{fill:#5b539b;}</style></defs><g id="a"/><g id="b"><g id="c"><g><path class="d" d="M1298.83,97.76c-6.23-7.43-13.86-12.93-22.96-16.37-9.05-3.43-18.36-5.99-27.78-8.16-7.86-1.81-15.75-3.51-23.36-6.22-2.56-.91-5.1-1.88-7.36-3.44-3.9-2.68-5.34-6.44-4.65-11.02,.47-3.11,2-5.69,4.35-7.78,2.19-1.94,4.72-3.28,7.52-4.08,8.07-2.3,16.27-2.25,24.5-1.25,8.13,1,15.95,3.23,23.5,6.4,1.89,.79,1.9,.77,3.32-.91,6.38-7.57,12.76-15.14,19.13-22.72,1.84-2.19,3.66-4.39,5.5-6.59-.54-.73-1.21-1.02-1.82-1.38-2.61-1.55-5.32-2.92-8.1-4.15-12.77-5.68-26.26-8.4-40.1-9.68-.01-.14-.02-.28-.02-.42h-21.6c0,.14,0,.28-.02,.42-2.86,.34-5.72,.61-8.56,1.05-10.2,1.58-19.88,4.66-28.77,10.01-11.25,6.77-19.26,16.16-23.38,28.68-2.85,8.65-3.27,17.52-1.95,26.48,1.06,7.22,3.54,13.89,8.27,19.59,6.15,7.41,13.72,12.84,22.76,16.21,9.75,3.63,19.76,6.33,29.88,8.67,7.86,1.82,15.69,3.74,23.22,6.7,1.86,.73,3.7,1.52,5.35,2.66,7.08,4.89,6.98,14.79-.19,19.55-1.88,1.25-3.95,2.09-6.12,2.67-8.48,2.25-17.1,2.2-25.72,1.22-11.78-1.34-22.94-4.85-33.6-9.96-1.82-.87-1.52-.92-2.89,.71-7.82,9.29-15.63,18.58-23.43,27.87-.35,.42-.8,.8-.84,1.51,.6,.43,1.24,.9,1.9,1.35,5.11,3.48,10.6,6.25,16.37,8.42,23.11,8.71,46.92,11.49,71.39,8.04,10.46-1.48,20.32-4.85,29.39-10.39,11.51-7.02,19.58-16.74,23.53-29.7,2.51-8.24,2.75-16.65,1.46-25.1-1.06-6.97-3.52-13.41-8.11-18.89Z"/><path class="d" d="M1453,97.5c-6.24-7.31-13.81-12.74-22.84-16.14-8.39-3.16-16.99-5.58-25.69-7.65-8-1.91-16.07-3.51-23.87-6.18-2.95-1.01-5.89-2.04-8.53-3.75-2.6-1.68-4.45-3.94-4.91-7.05-.65-4.36,.49-8.21,3.69-11.37,2.27-2.24,4.98-3.7,8-4.65,4.08-1.28,8.3-1.7,12.53-1.84,12.26-.39,23.96,2.21,35.26,6.83,2.23,.91,2.24,.92,3.74-.86,7.82-9.28,15.64-18.57,23.44-27.87,.39-.46,.96-.84,.98-1.65-.36-.25-.73-.56-1.14-.78-2.25-1.21-4.47-2.48-6.78-3.57-13.39-6.33-27.64-9.28-42.31-10.56-.01-.14-.02-.28-.03-.41h-17.28c-.05,0-.1,.05-.15,.14-.02,.03-.01,.07,0,.11-.38,0-.75,0-1.13,0,.03-.07,0-.15-.15-.25h-2.4c0,.13-.02,.27-.02,.4-2.78,.34-5.56,.61-8.32,1.02-9.65,1.42-18.83,4.23-27.37,9.02-11.51,6.45-19.98,15.54-24.58,28-3.57,9.67-3.97,19.63-2.29,29.7,1.05,6.31,3.33,12.15,7.34,17.21,5.97,7.55,13.4,13.17,22.42,16.66,8.73,3.38,17.71,5.93,26.8,8.11,7.84,1.88,15.72,3.61,23.36,6.23,3.17,1.09,6.32,2.24,9.19,4.03,7.19,4.5,7.08,15.49-.35,19.83-2.37,1.39-4.9,2.35-7.57,2.92-9.2,1.95-18.43,1.69-27.66,.28-10.5-1.6-20.48-4.9-30.02-9.54-1.12-.54-1.75-.55-2.6,.46-7.82,9.39-15.7,18.73-23.55,28.08-1.22,1.45-1.21,1.48,.44,2.62,3.56,2.45,7.31,4.58,11.25,6.37,14.64,6.64,30.08,10.11,46.04,11.42,10.07,.82,20.12,.61,30.14-.85,10.47-1.53,20.37-4.67,29.5-10.08,10.66-6.32,18.64-14.96,23.07-26.62,3.84-10.12,4.32-20.52,2.19-31.07-1.25-6.2-3.72-11.86-7.86-16.71Z"/><path class="d" d="M782.87,53.21q2.26,1.2,3.85-.67c.05-.06,.11-.12,.16-.18,9.2-10.94,18.4-21.87,27.59-32.81,.54-.64,1.22-1.21,1.43-2.15-13.49-9.66-28.43-15.22-44.82-16.97-.02-.14-.02-.29-.02-.43h-17.76c0,.14,0,.28-.02,.42-13.29,1.37-25.78,5.27-37.33,12.01-32.88,19.18-50.55,55.96-44.54,93.72,3.26,20.53,12.47,38.17,27.85,52.21,23.63,21.58,51.39,29.04,82.79,22.68,11.74-2.38,22.45-7.27,32.3-14.03,1.79-1.23,1.79-1.26,.47-2.84-9.46-11.24-18.92-22.48-28.38-33.71-1.34-1.59-1.35-1.57-3.04-.66-9.17,4.99-18.89,6.65-29.19,4.79-22.76-4.1-39.41-25.82-35.28-50.13,5.03-29.64,37.38-45.35,63.95-31.24Z"/><path class="d" d="M62.75,.42c-.01-.14-.02-.28-.02-.42h-17.76c0,.14,0,.28-.02,.43C28.5,2.17,13.52,7.76,0,17.49c.32,.47,.52,.81,.77,1.11,9.66,11.49,19.32,22.98,28.99,34.45,1.16,1.37,1.19,1.35,2.95,.4,9.26-5.02,19.1-6.82,29.43-4.64,16.92,3.56,28.46,13.64,33.54,30.07,5.15,16.67,1.13,31.68-11.23,43.96-13.88,13.8-34.57,16.33-51.8,6.95-1.88-1.02-1.43-1.28-3.04,.62-9.42,11.17-18.82,22.35-28.23,33.53q-1.5,1.79,.47,3.16c.13,.09,.26,.18,.39,.27,21.97,14.51,45.88,19.27,71.62,13.63,51.94-11.38,83.22-64.49,68.14-115.31C131.36,29.85,100.41,4.36,62.75,.42Z"/><path class="d" d="M2405.87,122.07c.21-6.9-1.03-13.51-4.69-19.46-6.23-10.13-15.06-17.22-26.13-21.55-6.78-2.65-13.76-4.7-20.79-6.56-8.96-2.36-18.12-3.94-26.98-6.73-3.66-1.15-7.32-2.34-10.61-4.36-6.86-4.2-5.88-12.61-2.12-16.86,2-2.27,4.47-3.83,7.31-4.84,4.57-1.64,9.36-2.17,14.14-2.25,11.58-.19,22.7,2.17,33.43,6.45,3.34,1.34,3.84,1.23,6.12-1.53,4.77-5.79,9.7-11.45,14.47-17.24,2.59-3.14,5.3-6.18,7.87-9.34,1.64-2.02,1.48-2.81-.68-4.19-.54-.34-1.12-.62-1.68-.92-6.36-3.42-12.97-6.2-19.94-8.11-8.86-2.43-17.81-4.31-27.06-4.35,0-.08-.02-.17-.01-.25h-21.12c0,.14-.01,.28-.02,.41-2.86,.34-5.72,.6-8.56,1.03-9.39,1.41-18.37,4.13-26.72,8.74-11.14,6.15-19.55,14.76-24.41,26.65-3.66,8.93-4.46,18.23-3.47,27.71,.78,7.4,2.94,14.39,7.56,20.38,5.98,7.75,13.51,13.52,22.68,17.08,10.07,3.9,20.48,6.68,30.99,9.12,8.17,1.9,16.31,3.88,24.09,7.08,1.85,.76,3.63,1.65,5.25,2.85,6.07,4.51,5.77,14.4-.38,18.59-2.62,1.79-5.5,2.89-8.58,3.54-9.2,1.93-18.43,1.64-27.65,.23-10.42-1.6-20.3-4.93-29.81-9.43-1.65-.78-1.66-.78-2.89,.68-7.76,9.23-15.51,18.46-23.26,27.7-.4,.47-.97,.86-.99,1.7,2.87,2.2,6.01,4.09,9.29,5.74,15.73,7.88,32.53,11.69,49.96,13.08,9.91,.79,19.8,.54,29.65-.9,11.04-1.62,21.46-4.98,30.9-11.02,14.88-9.52,23.52-22.84,24.66-40.67h.2l.2-.03v-8.14c-.08-.02-.16-.02-.23-.02Z"/><path class="d" d="M2244.41,176.9c0-56.81,0-113.63,0-170.44,0-.56-.02-1.12,0-1.68,.03-.8-.35-1.17-1.14-1.15-.4,.01-.8,0-1.2,0-11.68,0-23.35,.04-35.03-.05-1.72-.01-2.52,.6-3.25,2.06-9.81,19.62-19.68,39.21-29.53,58.81-8.2,16.32-16.39,32.65-24.61,48.96-.36,.72-.52,1.65-1.5,2.03-.38-.71-.73-1.33-1.06-1.97-8.89-17.67-17.78-35.34-26.66-53.02-9.21-18.32-18.42-36.63-27.58-54.96-.64-1.28-1.31-1.91-2.86-1.91-11.84,.07-23.67,.03-35.51,.04-2.1,0-2.1,.03-2.13,2.08,0,.16,0,.32,0,.48,0,56.97,0,113.95,0,170.92,0,2.8-.26,2.56,2.59,2.56,12.24,0,24.47,0,36.71,0,3.34,0,2.92,.26,2.92-2.97,0-23.54,0-47.08,.02-70.62,0-.81-.18-1.67,.35-2.73,.64,1.17,1.13,2.07,1.61,2.97,12.75,23.76,25.51,47.51,38.21,71.3,.83,1.56,1.76,2.12,3.51,2.09,6.64-.1,13.28-.11,19.91,0,1.92,.03,2.94-.53,3.88-2.28,12.8-24.01,25.69-47.96,38.55-71.93,.34-.62,.56-1.32,1.31-1.96,.37,.98,.21,1.77,.21,2.54,.01,17.24,0,34.47,0,51.71,0,6.7-.01,13.41,0,20.11,0,1.71,.05,1.76,1.71,1.76,12.96,.01,25.91,0,38.87,.02,1.17,0,1.86-.26,1.68-1.59-.05-.39,0-.8,0-1.2Z"/><path class="d" d="M649.34,3.62c-.56,.04-1.12,0-1.68,0-13.27,0-26.55-.01-39.82,0-4.02,0-3.57-.58-3.57,3.55-.01,28.88,0,57.76-.02,86.64,0,.89,.19,1.84-.33,2.94-.66-.8-1.18-1.38-1.66-1.99-23.49-29.77-46.98-59.54-70.42-89.35-1.05-1.34-2.14-1.84-3.82-1.83-11.36,.07-22.71,.03-34.07,.03-.48,0-.96,.02-1.44,0-.9-.04-1.34,.34-1.28,1.27,.03,.4,0,.8,0,1.2,0,57.12,0,114.24,0,171.37,0,2.33,.01,2.33,2.36,2.36,.24,0,.48,0,.72,0,13.51,0,27.03,0,40.54,0,3.47,0,2.91,.06,2.91-3,.01-29.2,0-58.4,0-87.6v-3.11c1.07,1.3,1.77,2.13,2.44,2.98,23.44,29.71,46.88,59.42,70.29,89.15,.87,1.11,1.77,1.61,3.2,1.6,11.68-.05,23.35-.02,35.03-.03,2.11,0,2.11-.03,2.14-2.11,0-.32,0-.64,0-.96,0-56.64,0-113.29,0-169.93,0-.56-.03-1.12,0-1.67,.08-1.14-.43-1.61-1.55-1.52Z"/><path class="d" d="M466.97,141.2c-.48,0-.96,0-1.44,0-26.55,0-53.11,0-79.66,0-.64,0-1.28-.03-1.92,0-.83,.03-1.15-.38-1.13-1.16,.02-.56,0-1.12,0-1.68,0-8.62-.02-17.24,0-25.85,.01-3.94-.58-3.42,3.41-3.42,20.32-.02,40.63,0,60.95,0,2.42,0,2.4,.19,2.38-2.31,0-.16,0-.32,0-.48,0-10.61,0-21.23,0-31.84,0-.48-.03-.96,0-1.44,.06-.94-.39-1.29-1.29-1.24-.64,.03-1.28,0-1.92,0-20.24,0-40.47,0-60.71,0-.64,0-1.28,0-1.92-.01-.58,0-.88-.32-.9-.88-.02-.64-.02-1.28-.02-1.91,0-7.98-.01-15.96,0-23.94,0-3.28-.36-2.89,2.98-2.89,25.99,0,51.99,0,77.98,0,2.39,0,2.41-.01,2.41-2.28,0-11.33,0-22.66,0-33.99,0-2.2-.02-2.22-2.27-2.22-41.91,0-83.82,0-125.73,0-2.34,0-2.34,.02-2.36,2.35,0,.48,0,.96,0,1.44,0,28.09,0,56.18,0,84.26s0,56.65,0,84.98c0,3.33-.61,3.15,3.24,3.15,42.31,0,84.62,0,126.93,0,.32,0,.64,0,.96,0,2.25-.03,2.26-.03,2.27-2.22,0-6.46,0-12.93,0-19.39,0-4.87,0-9.73,0-14.6,0-2.49,.19-2.41-2.27-2.41Z"/><path class="d" d="M950.27,140.25c-21.75-.01-43.5,0-65.25-.01-3.59,0-3.21,.5-3.21-3.15,0-43.32,0-86.64,0-129.96,0-.64-.04-1.28,0-1.91,.07-1.08-.3-1.69-1.48-1.59-.48,.04-.96,0-1.44,0-13.91,0-27.83,0-41.74,0-3.14,0-2.79-.29-2.79,2.85,0,28.4,0,56.8,0,85.2s0,56.64,0,84.97c0,.64,.03,1.28,0,1.91-.05,.94,.39,1.29,1.29,1.25,.64-.03,1.28,0,1.92,0,24.31,0,48.62,0,72.93,0,13.51,0,27.03,0,40.54,0,2.36,0,2.36-.02,2.37-2.35,0-.32,0-.64,0-.96,0-11.01,.01-22.02,0-33.03,0-3.65,.49-3.23-3.12-3.23Z"/><path class="d" d="M1826.01,53.61c-15.15-31.13-40.08-48.8-74.49-53.18-.02-.14-.02-.29-.02-.43h-17.76c0,.14,0,.28-.02,.42-3.89,.46-7.75,1.02-11.58,1.89-50.27,11.38-81.35,61.95-68.69,111.78,11.58,45.59,55.71,75.05,102.42,68.21,19.14-2.8,35.91-10.82,49.82-24.24,20.13-19.43,29.63-43.25,28.45-71.23-.49-11.61-3.06-22.79-8.14-33.22Zm-83.61,84.32c-25.58-.03-46.32-20.81-46.29-46.32,.03-26.16,21.63-46.46,46.38-46.2,25-.25,46.47,20.27,46.42,46.4-.04,25.46-20.87,46.14-46.51,46.11Z"/><path class="d" d="M1949.74,.42c-.01-.14-.02-.28-.02-.42h-17.28c0,.14-.02,.27-.02,.41-3.58,.38-7.14,.88-10.65,1.64-48.96,10.61-81.82,58.63-70.22,110.04,11.28,49.97,61.66,80.71,111.43,68.54,45.45-11.11,77.87-56.09,68.18-106.7-7.58-39.64-41.01-69.67-81.42-73.51Zm-8.77,137.5c-24.43,.09-46.34-19.52-46.31-46.29,.03-27.24,22.53-46.39,46.58-46.29,23.82,.1,46.26,19.16,46.19,46.44-.07,26.7-21.94,46.3-46.46,46.14Z"/><path class="d" d="M1599.11,125.18c.62-.36,1.24-.72,1.87-1.06,13.27-7.15,22.77-17.6,27.93-31.83,3.09-8.52,3.97-17.36,3.72-26.37-.26-9.62-2.22-18.83-6.59-27.44-7.09-13.98-18.41-23.24-32.85-28.92-10.93-4.3-22.35-5.91-34.03-5.92-24.87-.01-49.74,0-74.62,0-3.52,0-3.12-.28-3.12,3.03,0,56.73,0,113.46,0,170.19,0,.56,.03,1.12,0,1.68-.06,.93,.4,1.3,1.28,1.28,.56-.01,1.12,0,1.68,0,7.92,0,15.83,0,23.75,0,6,0,12,0,17.99,0,2.14,0,2.14-.03,2.17-2.06,0-.48,0-.96,0-1.44,0-13.48,0-26.97,0-40.45,0-2.19,.02-2.2,2.23-2.2,5.84,0,11.68,.08,17.51-.05,1.89-.04,3,.55,4.07,2.12,9.53,14.08,19.17,28.08,28.72,42.15,.95,1.4,1.97,1.98,3.69,1.98,16.31-.06,32.63-.03,48.94-.05,.68,0,1.44,.25,2.21-.46-12.27-17.95-24.54-35.91-36.74-53.77,.12-.27,.12-.38,.18-.41Zm-15.28-48.48c-2.45,9.3-8.78,14.51-17.93,16.63-2.96,.69-5.98,1.04-9.03,1.04-8.79-.01-17.59,0-26.38,0-.4,0-.8-.02-1.2,0-.7,.02-1.02-.31-1-1,.01-.56,0-1.12,0-1.67,0-7.74,0-15.47,0-23.21,0-7.82,0-15.63,0-23.45,0-2.09,.03-2.12,2.09-2.12,9.03,.01,18.07,.02,27.1,.08,3.94,.02,7.79,.63,11.53,1.93,9.18,3.18,14.13,9.78,15.43,19.2,.58,4.2,.49,8.45-.6,12.59Z"/><path class="d" d="M280.37,11.03c-11.82-5.43-24.4-7.38-37.32-7.4-25.03-.03-50.06,0-75.08,0-2.96,0-2.82-.3-2.82,2.87,0,28.4,0,56.8,0,85.2s0,56.48,0,84.72c0,.64,.04,1.28,0,1.91-.09,1.17,.49,1.58,1.58,1.49,.32-.03,.64,0,.96,0,14.15,0,28.31,0,42.46,0,.48,0,.96-.02,1.44,0,.81,.01,1.15-.4,1.14-1.18,0-.56,0-1.12,0-1.68,0-7.74,0-15.48,0-23.21,0-6.06-.01-12.13,0-18.19,0-1.85,.05-1.88,1.86-1.89,3.28-.02,6.56,.04,9.84-.02,9.59-.15,19.19,.4,28.76-.49,10.2-.95,20-3.32,29.21-7.85,13.41-6.59,23.44-16.5,29.17-30.41,5.06-12.28,5.97-25.1,3.91-38.07-3.42-21.49-15.36-36.71-35.13-45.79Zm-12.79,65.43c-2.35,9.31-8.59,14.62-17.73,16.81-3.03,.73-6.12,1.1-9.26,1.09-8.55-.01-17.1,0-25.65,0-.4,0-.8-.01-1.2,0-.7,.01-1.02-.33-1-1.02,.01-.56-.01-1.12-.01-1.67,0-7.73,0-15.46,0-23.2s0-15.15,0-22.72c0-.56,.02-1.12,.01-1.67-.02-.79,.34-1.18,1.15-1.16,.24,0,.48-.01,.72-.01,9.19,.04,18.38,.04,27.56,.13,4.1,.04,8.09,.85,11.9,2.39,8.24,3.34,12.65,9.64,14.01,18.23,.68,4.29,.55,8.59-.51,12.82Z"/><path class="d" d="M1130.48,113.63c-15.15-35.92-30.33-71.83-45.41-107.77-.76-1.82-1.69-2.28-3.53-2.27-13.59,.08-27.19,.02-40.78,.05-4.25,0-3.19-.59-4.77,3.17-13.02,30.93-26.01,61.88-39.01,92.82-10.9,25.94-21.81,51.88-32.7,77.83-.29,.69-.91,1.34-.52,2.28,.56,.03,1.11,.08,1.66,.08,14.71,0,29.43,0,44.14,0,2.16,0,2.17-.01,2.92-1.97,3.87-10.04,7.71-20.09,11.6-30.13,.86-2.22,.32-2.17,3-2.17,22.23,0,44.46,0,66.69,0,2.01,0,2.03,0,2.73,1.84,3.87,10.04,7.72,20.09,11.61,30.12,.88,2.26,.32,2.31,3.43,2.31,14.71,0,29.43,0,44.14-.01,.77,0,1.59,.23,2.53-.4-.41-.99-.77-1.87-1.14-2.75-8.86-21.01-17.71-42.02-26.57-63.03Zm-91.6-4.99c7.11-18.59,14.16-37.01,21.22-55.43,.16-.02,.31-.05,.47-.07,7.05,18.4,14.09,36.8,21.26,55.51h-42.94Z"/></g></g></g></svg>